<svg viewBox="0 0 1080 1920" width="1080" height="1920" fill="none" xmlns="http://www.w3.org/2000/svg">
  <defs>
    <linearGradient id="bg" x1="0" y1="0" x2="1080" y2="1920" gradientUnits="userSpaceOnUse">
      <stop offset="0%" stop-color="#1f1a16"/>
      <stop offset="50%" stop-color="#161210"/>
      <stop offset="100%" stop-color="#0b0907"/>
    </linearGradient>
    <radialGradient id="glow-top" cx="50%" cy="20%" r="50%">
      <stop offset="0%" stop-color="#d4402b" stop-opacity="0.20"/>
      <stop offset="100%" stop-color="#d4402b" stop-opacity="0"/>
    </radialGradient>
    <radialGradient id="glow-bot" cx="50%" cy="85%" r="40%">
      <stop offset="0%" stop-color="#d4402b" stop-opacity="0.12"/>
      <stop offset="100%" stop-color="#d4402b" stop-opacity="0"/>
    </radialGradient>
  </defs>

  <rect width="1080" height="1920" fill="url(#bg)"/>
  <rect width="1080" height="1920" fill="url(#glow-top)"/>
  <rect width="1080" height="1920" fill="url(#glow-bot)"/>

  <!-- Subtle stacked bars pattern — tiled throughout background -->
  <!-- Row 1 -->
  <rect x="80" y="280" width="200" height="14" rx="7" fill="#d4402b" fill-opacity="0.06"/>
  <rect x="80" y="306" width="144" height="14" rx="7" fill="#d4402b" fill-opacity="0.04"/>
  <rect x="80" y="332" width="88" height="14" rx="7" fill="#d4402b" fill-opacity="0.03"/>

  <rect x="780" y="280" width="200" height="14" rx="7" fill="#d4402b" fill-opacity="0.06"/>
  <rect x="780" y="306" width="144" height="14" rx="7" fill="#d4402b" fill-opacity="0.04"/>
  <rect x="780" y="332" width="88" height="14" rx="7" fill="#d4402b" fill-opacity="0.03"/>

  <!-- Row 2 -->
  <rect x="80" y="1280" width="180" height="12" rx="6" fill="#d4402b" fill-opacity="0.05"/>
  <rect x="80" y="1304" width="130" height="12" rx="6" fill="#d4402b" fill-opacity="0.04"/>
  <rect x="80" y="1328" width="80" height="12" rx="6" fill="#d4402b" fill-opacity="0.03"/>

  <rect x="820" y="1280" width="180" height="12" rx="6" fill="#d4402b" fill-opacity="0.05"/>
  <rect x="820" y="1304" width="130" height="12" rx="6" fill="#d4402b" fill-opacity="0.04"/>
  <rect x="820" y="1328" width="80" height="12" rx="6" fill="#d4402b" fill-opacity="0.03"/>

  <!-- Row 3 -->
  <rect x="400" y="480" width="280" height="10" rx="5" fill="#d4402b" fill-opacity="0.04"/>
  <rect x="400" y="502" width="200" height="10" rx="5" fill="#d4402b" fill-opacity="0.03"/>
  <rect x="400" y="524" width="120" height="10" rx="5" fill="#d4402b" fill-opacity="0.02"/>

  <!-- Top section: Logo -->
  <!-- Icon large -->
  <rect x="390" y="180" width="300" height="300" rx="66" fill="#d4402b"/>
  <rect x="450" y="248" width="180" height="36" rx="18" fill="#1a1512"/>
  <rect x="450" y="299" width="130" height="36" rx="18" fill="#1a1512"/>
  <rect x="450" y="350" width="80" height="36" rx="18" fill="#1a1512"/>

  <!-- Wordmark below icon -->
  <text x="540" y="570"
    font-family="system-ui, -apple-system, 'Segoe UI', sans-serif"
    font-size="64"
    fill="white"
    letter-spacing="-2"
    text-anchor="middle">
    <tspan font-weight="800">AI</tspan><tspan font-weight="400">PowerStacks</tspan>
  </text>

  <!-- Divider -->
  <rect x="240" y="610" width="600" height="1" fill="white" fill-opacity="0.10"/>

  <!-- Tagline -->
  <text x="540" y="700"
    font-family="system-ui, -apple-system, 'Segoe UI', sans-serif"
    font-size="40"
    font-weight="700"
    fill="white"
    text-anchor="middle"
    letter-spacing="-0.5">Track Your AI Spend</text>
  <text x="540" y="760"
    font-family="system-ui, -apple-system, 'Segoe UI', sans-serif"
    font-size="40"
    font-weight="700"
    fill="#d4402b"
    text-anchor="middle"
    letter-spacing="-0.5">&amp; Stop Overpaying</text>

  <!-- Description -->
  <text x="540" y="840"
    font-family="system-ui, -apple-system, 'Segoe UI', sans-serif"
    font-size="24"
    font-weight="400"
    fill="white"
    fill-opacity="0.55"
    text-anchor="middle">Discover, compare &amp; track AI tool subscriptions.</text>
  <text x="540" y="876"
    font-family="system-ui, -apple-system, 'Segoe UI', sans-serif"
    font-size="24"
    font-weight="400"
    fill="white"
    fill-opacity="0.55"
    text-anchor="middle">Find overlap. Cut waste.</text>

  <!-- Stats section -->
  <rect x="80" y="960" width="900" height="200" rx="20" fill="#222018" stroke="#d4402b" stroke-opacity="0.15" stroke-width="1"/>

  <!-- Stat 1 -->
  <text x="230" y="1040"
    font-family="system-ui, -apple-system, 'Segoe UI', sans-serif"
    font-size="64"
    font-weight="800"
    fill="#d4402b"
    text-anchor="middle">422+</text>
  <text x="230" y="1080"
    font-family="system-ui, -apple-system, 'Segoe UI', sans-serif"
    font-size="20"
    fill="white"
    fill-opacity="0.5"
    text-anchor="middle">AI Tools</text>

  <!-- Divider lines -->
  <rect x="393" y="990" width="1" height="140" fill="white" fill-opacity="0.08"/>
  <rect x="687" y="990" width="1" height="140" fill="white" fill-opacity="0.08"/>

  <!-- Stat 2 -->
  <text x="540" y="1040"
    font-family="system-ui, -apple-system, 'Segoe UI', sans-serif"
    font-size="64"
    font-weight="800"
    fill="#d4402b"
    text-anchor="middle">44+</text>
  <text x="540" y="1080"
    font-family="system-ui, -apple-system, 'Segoe UI', sans-serif"
    font-size="20"
    fill="white"
    fill-opacity="0.5"
    text-anchor="middle">Categories</text>

  <!-- Stat 3 -->
  <text x="850" y="1032"
    font-family="system-ui, -apple-system, 'Segoe UI', sans-serif"
    font-size="40"
    font-weight="800"
    fill="#d4402b"
    text-anchor="middle">Updated</text>
  <text x="850" y="1080"
    font-family="system-ui, -apple-system, 'Segoe UI', sans-serif"
    font-size="40"
    font-weight="800"
    fill="#d4402b"
    text-anchor="middle">Daily</text>

  <!-- Feature list -->
  <text x="540" y="1250"
    font-family="system-ui, -apple-system, 'Segoe UI', sans-serif"
    font-size="22"
    fill="white"
    fill-opacity="0.40"
    text-anchor="middle"
    letter-spacing="2">SUBSCRIPTION TRACKING  ·  OVERLAP DETECTION</text>
  <text x="540" y="1290"
    font-family="system-ui, -apple-system, 'Segoe UI', sans-serif"
    font-size="22"
    fill="white"
    fill-opacity="0.40"
    text-anchor="middle"
    letter-spacing="2">COST COMPARISON  ·  SMART RECOMMENDATIONS</text>

  <!-- CTA Button -->
  <rect x="240" y="1380" width="600" height="100" rx="50" fill="#d4402b"/>
  <text x="540" y="1442"
    font-family="system-ui, -apple-system, 'Segoe UI', sans-serif"
    font-size="32"
    font-weight="700"
    fill="white"
    text-anchor="middle"
    letter-spacing="0.5">Start Tracking Free →</text>

  <!-- URL -->
  <text x="540" y="1550"
    font-family="system-ui, -apple-system, 'Segoe UI', sans-serif"
    font-size="24"
    fill="white"
    fill-opacity="0.25"
    text-anchor="middle"
    letter-spacing="1.5">aipowerstacks.com</text>

  <!-- Bottom decorative bar repeat motif -->
  <rect x="340" y="1650" width="400" height="8" rx="4" fill="#d4402b" fill-opacity="0.25"/>
  <rect x="390" y="672" width="300" height="8" rx="4" fill="#d4402b" fill-opacity="0.18"/>
  <rect x="440" y="694" width="200" height="8" rx="4" fill="#d4402b" fill-opacity="0.12"/>
</svg>
