<svg viewBox="0 0 1584 396" width="1584" height="396" fill="none" xmlns="http://www.w3.org/2000/svg">
  <defs>
    <linearGradient id="bg" x1="0" y1="0" x2="1584" y2="396" gradientUnits="userSpaceOnUse">
      <stop offset="0%" stop-color="#1f1a16"/>
      <stop offset="60%" stop-color="#161210"/>
      <stop offset="100%" stop-color="#0e0c0a"/>
    </linearGradient>
    <linearGradient id="accent" x1="0" y1="0" x2="1" y2="1">
      <stop offset="0%" stop-color="#d4402b" stop-opacity="0.2"/>
      <stop offset="100%" stop-color="#d4402b" stop-opacity="0"/>
    </linearGradient>
  </defs>

  <rect width="1584" height="396" fill="url(#bg)"/>
  <ellipse cx="300" cy="100" rx="500" ry="300" fill="url(#accent)"/>

  <!-- Decorative bars (right side, large) -->
  <rect x="1100" y="80" width="340" height="30" rx="15" fill="#d4402b" fill-opacity="0.10"/>
  <rect x="1100" y="124" width="245" height="30" rx="15" fill="#d4402b" fill-opacity="0.07"/>
  <rect x="1100" y="168" width="150" height="30" rx="15" fill="#d4402b" fill-opacity="0.05"/>

  <rect x="1200" y="230" width="260" height="24" rx="12" fill="#d4402b" fill-opacity="0.08"/>
  <rect x="1200" y="266" width="185" height="24" rx="12" fill="#d4402b" fill-opacity="0.06"/>
  <rect x="1200" y="302" width="115" height="24" rx="12" fill="#d4402b" fill-opacity="0.04"/>

  <!-- Left accent line -->
  <rect x="80" y="80" width="4" height="240" rx="2" fill="#d4402b"/>

  <!-- Icon -->
  <rect x="108" y="100" width="110" height="110" rx="24" fill="#d4402b"/>
  <rect x="130" y="128" width="66" height="13" rx="6.5" fill="#1a1512"/>
  <rect x="130" y="148" width="48" height="13" rx="6.5" fill="#1a1512"/>
  <rect x="130" y="168" width="29" height="13" rx="6.5" fill="#1a1512"/>

  <!-- Wordmark -->
  <text x="236" y="170"
    font-family="system-ui, -apple-system, 'Segoe UI', sans-serif"
    font-size="62"
    fill="white"
    letter-spacing="-1.5">
    <tspan font-weight="800">AI</tspan><tspan font-weight="400">PowerStacks</tspan>
  </text>

  <!-- Tagline -->
  <text x="238" y="214"
    font-family="system-ui, -apple-system, 'Segoe UI', sans-serif"
    font-size="22"
    fill="#d4402b"
    font-weight="500"
    letter-spacing="0.3">Track Your AI Spend &amp; Stop Overpaying</text>

  <!-- Divider -->
  <rect x="108" y="248" width="900" height="1" fill="white" fill-opacity="0.08"/>

  <!-- Value props -->
  <text x="108" y="290"
    font-family="system-ui, -apple-system, 'Segoe UI', sans-serif"
    font-size="17"
    fill="white"
    fill-opacity="0.45"
    letter-spacing="1.8">422+ AI TOOLS  ·  SUBSCRIPTION TRACKING  ·  OVERLAP DETECTION  ·  FREE</text>
</svg>
