<svg viewBox="0 0 1500 500" width="1500" height="500" fill="none" xmlns="http://www.w3.org/2000/svg">
  <defs>
    <linearGradient id="bg" x1="0" y1="0" x2="1500" y2="500" gradientUnits="userSpaceOnUse">
      <stop offset="0%" stop-color="#1f1a16"/>
      <stop offset="100%" stop-color="#0e0c0a"/>
    </linearGradient>
    <linearGradient id="glow1" x1="0" y1="0" x2="1" y2="1">
      <stop offset="0%" stop-color="#d4402b" stop-opacity="0.22"/>
      <stop offset="100%" stop-color="#d4402b" stop-opacity="0"/>
    </linearGradient>
  </defs>
  <rect width="1500" height="500" fill="url(#bg)"/>
  <circle cx="200" cy="120" r="350" fill="url(#glow1)"/>

  <!-- Large decorative bars (right) -->
  <rect x="900" y="100" width="420" height="36" rx="18" fill="#d4402b" fill-opacity="0.10"/>
  <rect x="900" y="155" width="300" height="36" rx="18" fill="#d4402b" fill-opacity="0.07"/>
  <rect x="900" y="210" width="185" height="36" rx="18" fill="#d4402b" fill-opacity="0.05"/>

  <rect x="1050" y="280" width="320" height="28" rx="14" fill="#d4402b" fill-opacity="0.08"/>
  <rect x="1050" y="320" width="230" height="28" rx="14" fill="#d4402b" fill-opacity="0.06"/>
  <rect x="1050" y="360" width="140" height="28" rx="14" fill="#d4402b" fill-opacity="0.04"/>

  <!-- Icon -->
  <rect x="100" y="130" width="160" height="160" rx="35" fill="#d4402b"/>
  <rect x="133" y="178" width="94" height="19" rx="9.5" fill="#1a1512"/>
  <rect x="133" y="206" width="67" height="19" rx="9.5" fill="#1a1512"/>
  <rect x="133" y="234" width="41" height="19" rx="9.5" fill="#1a1512"/>

  <!-- Wordmark -->
  <text x="282" y="235"
    font-family="system-ui, -apple-system, 'Segoe UI', sans-serif"
    font-size="80"
    fill="white"
    letter-spacing="-2">
    <tspan font-weight="800">AI</tspan><tspan font-weight="400">PowerStacks</tspan>
  </text>

  <!-- Tagline -->
  <text x="284" y="290"
    font-family="system-ui, -apple-system, 'Segoe UI', sans-serif"
    font-size="28"
    fill="#d4402b"
    font-weight="500"
    letter-spacing="0.5">Track Your AI Spend &amp; Stop Overpaying</text>

  <!-- Bottom stats strip -->
  <rect x="0" y="430" width="1500" height="1" fill="white" fill-opacity="0.06"/>
  <text x="100" y="468"
    font-family="system-ui, -apple-system, 'Segoe UI', sans-serif"
    font-size="18"
    fill="white"
    fill-opacity="0.4"
    letter-spacing="2.5">422+ AI TOOLS  ·  44+ CATEGORIES  ·  UPDATED DAILY  ·  FREE TO USE</text>
</svg>
